<svg width="23" height="30" viewBox="0 0 23 30" fill="none" xmlns="http://www.w3.org/2000/svg">
<path d="M3.75 0C1.68164 0 0 1.68164 0 3.75V26.25C0 28.3184 1.68164 30 3.75 30H18.75C20.8184 30 22.5 28.3184 22.5 26.25V9.375H15C13.9629 9.375 13.125 8.53711 13.125 7.5V0H3.75ZM15 0V7.5H22.5L15 0ZM6.5625 15H15.9375C16.4531 15 16.875 15.4219 16.875 15.9375C16.875 16.4531 16.4531 16.875 15.9375 16.875H6.5625C6.04688 16.875 5.625 16.4531 5.625 15.9375C5.625 15.4219 6.04688 15 6.5625 15ZM6.5625 18.75H15.9375C16.4531 18.75 16.875 19.1719 16.875 19.6875C16.875 20.2031 16.4531 20.625 15.9375 20.625H6.5625C6.04688 20.625 5.625 20.2031 5.625 19.6875C5.625 19.1719 6.04688 18.75 6.5625 18.75ZM6.5625 22.5H15.9375C16.4531 22.5 16.875 22.9219 16.875 23.4375C16.875 23.9531 16.4531 24.375 15.9375 24.375H6.5625C6.04688 24.375 5.625 23.9531 5.625 23.4375C5.625 22.9219 6.04688 22.5 6.5625 22.5Z" fill="url(#paint0_linear_12_7129)"/>
<defs>
<linearGradient id="paint0_linear_12_7129" x1="-7.95495" y1="10.6066" x2="12.4097" y2="25.8801" gradientUnits="userSpaceOnUse">
<stop stop-color="#6E0D25"/>
<stop offset="0.5" stop-color="#6E0D25"/>
<stop offset="1" stop-color="#8B1A32"/>
</linearGradient>
</defs>
</svg>
