<svg width="34" height="27" viewBox="0 0 34 27" fill="none" xmlns="http://www.w3.org/2000/svg">
<path d="M3.75 0C1.68164 0 0 1.68164 0 3.75V5.625H33.75V3.75C33.75 1.68164 32.0684 0 30 0H3.75ZM33.75 11.25H0V22.5C0 24.5684 1.68164 26.25 3.75 26.25H30C32.0684 26.25 33.75 24.5684 33.75 22.5V11.25ZM6.5625 18.75H10.3125C10.8281 18.75 11.25 19.1719 11.25 19.6875C11.25 20.2031 10.8281 20.625 10.3125 20.625H6.5625C6.04688 20.625 5.625 20.2031 5.625 19.6875C5.625 19.1719 6.04688 18.75 6.5625 18.75ZM13.125 19.6875C13.125 19.1719 13.5469 18.75 14.0625 18.75H21.5625C22.0781 18.75 22.5 19.1719 22.5 19.6875C22.5 20.2031 22.0781 20.625 21.5625 20.625H14.0625C13.5469 20.625 13.125 20.2031 13.125 19.6875Z" fill="url(#paint0_linear_12_7132)"/>
<defs>
<linearGradient id="paint0_linear_12_7132" x1="-11.9324" y1="9.28078" x2="6.058" y2="32.4113" gradientUnits="userSpaceOnUse">
<stop stop-color="#6E0D25"/>
<stop offset="0.5" stop-color="#6E0D25"/>
<stop offset="1" stop-color="#8B1A32"/>
</linearGradient>
</defs>
</svg>
