<svg width="27" height="30" viewBox="0 0 27 30" fill="none" xmlns="http://www.w3.org/2000/svg">
<path d="M0 3.75C0 1.68164 1.68164 0 3.75 0H22.5C24.5684 0 26.25 1.68164 26.25 3.75V26.25C26.25 28.3184 24.5684 30 22.5 30H3.75C1.68164 30 0 28.3184 0 26.25V3.75ZM10.7227 16.3359C9.08789 15.5625 7.88672 14.0273 7.57617 12.1875H9.86719C9.96094 13.9688 10.3184 15.3398 10.7227 16.3359ZM13.1426 16.875H13.125H13.1074C12.9668 16.6699 12.7734 16.3535 12.5742 15.9082C12.2227 15.1113 11.8477 13.8984 11.7422 12.1875H14.502C14.3965 13.8984 14.0273 15.1113 13.6699 15.9082C13.4707 16.3535 13.2773 16.6699 13.1367 16.875H13.1426ZM15.5273 16.3359C15.9258 15.334 16.2832 13.9688 16.3828 12.1875H18.6738C18.3633 14.0273 17.1621 15.5625 15.5273 16.3359ZM16.3828 10.3125C16.2891 8.53125 15.9316 7.16016 15.5273 6.16406C17.1621 6.9375 18.3633 8.47266 18.6738 10.3125H16.3828ZM13.1074 5.625H13.125H13.1426C13.2832 5.83008 13.4766 6.14648 13.6758 6.5918C14.0273 7.38867 14.4023 8.60156 14.5078 10.3125H11.748C11.8535 8.60156 12.2227 7.38867 12.5801 6.5918C12.7793 6.14648 12.9727 5.83008 13.1133 5.625H13.1074ZM10.7227 6.16406C10.3242 7.16602 9.9668 8.53125 9.86719 10.3125H7.57617C7.88672 8.47266 9.08789 6.9375 10.7227 6.16406ZM20.625 11.25C20.625 9.26088 19.8348 7.35322 18.4283 5.9467C17.0218 4.54018 15.1141 3.75 13.125 3.75C11.1359 3.75 9.22822 4.54018 7.8217 5.9467C6.41518 7.35322 5.625 9.26088 5.625 11.25C5.625 13.2391 6.41518 15.1468 7.8217 16.5533C9.22822 17.9598 11.1359 18.75 13.125 18.75C15.1141 18.75 17.0218 17.9598 18.4283 16.5533C19.8348 15.1468 20.625 13.2391 20.625 11.25ZM6.5625 22.5C6.04688 22.5 5.625 22.9219 5.625 23.4375C5.625 23.9531 6.04688 24.375 6.5625 24.375H19.6875C20.2031 24.375 20.625 23.9531 20.625 23.4375C20.625 22.9219 20.2031 22.5 19.6875 22.5H6.5625Z" fill="white"/>
</svg>
