<svg width="30" height="30" viewBox="0 0 30 30" fill="none" xmlns="http://www.w3.org/2000/svg">
<path d="M29.1855 0.328105C29.7773 0.738261 30.0879 1.44725 29.9766 2.15623L26.2266 26.5312C26.1387 27.0996 25.793 27.5976 25.2891 27.8789C24.7852 28.1601 24.1816 28.1953 23.6484 27.9726L16.6406 25.0605L12.627 29.4023C12.1055 29.9707 11.2852 30.1582 10.5645 29.8769C9.84375 29.5957 9.375 28.8984 9.375 28.125V23.2265C9.375 22.9922 9.46289 22.7695 9.62109 22.5996L19.4414 11.8828C19.7812 11.5137 19.7695 10.9453 19.418 10.5937C19.0664 10.2422 18.498 10.2187 18.1289 10.5527L6.21094 21.1406L1.03711 18.5508C0.416016 18.2402 0.0175781 17.6191 -6.56582e-08 16.9277C-0.0175782 16.2363 0.345703 15.5918 0.943359 15.2461L27.1934 0.246074C27.8203 -0.111348 28.5938 -0.076192 29.1855 0.328105Z" fill="url(#paint0_linear_12_6812)"/>
<defs>
<linearGradient id="paint0_linear_12_6812" x1="-10.607" y1="10.6086" x2="10.6106" y2="31.8214" gradientUnits="userSpaceOnUse">
<stop stop-color="#6E0D25"/>
<stop offset="0.5" stop-color="#6E0D25"/>
<stop offset="1" stop-color="#8B1A32"/>
</linearGradient>
</defs>
</svg>
