<svg width="30" height="30" viewBox="0 0 30 30" fill="none" xmlns="http://www.w3.org/2000/svg">
<g clip-path="url(#clip0_10_6186)">
<path d="M21.252 1.13086L18.4161 3.9668L26.0333 11.584L28.8692 8.74805C30.3341 7.2832 30.3341 4.91016 28.8692 3.44531L26.5606 1.13086C25.0958 -0.333984 22.7227 -0.333984 21.2579 1.13086H21.252ZM17.0919 5.29102L3.43368 18.9551C2.8243 19.5645 2.37899 20.3203 2.13289 21.1465L0.0586759 28.1953C-0.0878084 28.6934 0.0469572 29.2266 0.410238 29.5898C0.77352 29.9531 1.30672 30.0879 1.79891 29.9473L8.84774 27.873C9.67391 27.627 10.4298 27.1816 11.0391 26.5723L24.7091 12.9082L17.0919 5.29102Z" fill="url(#paint0_linear_10_6186)"/>
</g>
<defs>
<linearGradient id="paint0_linear_10_6186" x1="-10.5946" y1="10.6281" x2="10.5972" y2="31.8182" gradientUnits="userSpaceOnUse">
<stop stop-color="#6E0D25"/>
<stop offset="0.5" stop-color="#6E0D25"/>
<stop offset="1" stop-color="#8B1A32"/>
</linearGradient>
<clipPath id="clip0_10_6186">
<path d="M0 0H30V30H0V0Z" fill="white"/>
</clipPath>
</defs>
</svg>
