<svg width="38" height="30" viewBox="0 0 38 30" fill="none" xmlns="http://www.w3.org/2000/svg">
<path d="M12.1874 20.625C18.9198 20.625 24.3749 16.0078 24.3749 10.3125C24.3749 4.61719 18.9198 0 12.1874 0C5.45499 0 -9.11459e-05 4.61719 -9.11459e-05 10.3125C-9.11459e-05 12.5742 0.861237 14.666 2.32022 16.3711C2.11514 16.9219 1.81046 17.4082 1.48819 17.8184C1.20694 18.1816 0.919831 18.4629 0.708893 18.6562C0.603424 18.75 0.515534 18.8262 0.45694 18.873C0.427643 18.8965 0.404206 18.9141 0.392487 18.9199L0.380768 18.9316C0.0585026 19.1719 -0.0821224 19.5938 0.0467839 19.9746C0.17569 20.3555 0.533112 20.625 0.937409 20.625C2.21475 20.625 3.50382 20.2969 4.57608 19.8926C5.11514 19.6875 5.61905 19.459 6.0585 19.2246C7.85733 20.1152 9.94913 20.625 12.1874 20.625ZM26.2499 10.3125C26.2499 16.8926 20.4433 21.8496 13.5644 22.4414C14.9882 26.8008 19.7108 30 25.3124 30C27.5507 30 29.6425 29.4902 31.4472 28.5996C31.8866 28.834 32.3847 29.0625 32.9237 29.2676C33.996 29.6719 35.2851 30 36.5624 30C36.9667 30 37.33 29.7363 37.453 29.3496C37.5761 28.9629 37.4413 28.541 37.1132 28.3008L37.1015 28.2891C37.0898 28.2773 37.0663 28.2656 37.037 28.2422C36.9784 28.1953 36.8905 28.125 36.7851 28.0254C36.5741 27.832 36.287 27.5508 36.0058 27.1875C35.6835 26.7773 35.3788 26.2852 35.1737 25.7402C36.6327 24.041 37.494 21.9492 37.494 19.6816C37.494 14.2441 32.5194 9.78516 26.2089 9.39844C26.2323 9.69727 26.244 10.002 26.244 10.3066L26.2499 10.3125Z" fill="url(#paint0_linear_10_6178)"/>
<defs>
<linearGradient id="paint0_linear_10_6178" x1="-13.2585" y1="10.6066" x2="7.43743" y2="36.4757" gradientUnits="userSpaceOnUse">
<stop stop-color="#6E0D25"/>
<stop offset="0.5" stop-color="#6E0D25"/>
<stop offset="1" stop-color="#8B1A32"/>
</linearGradient>
</defs>
</svg>
