<svg width="48" height="48" viewBox="0 0 48 48" fill="none" xmlns="http://www.w3.org/2000/svg">
<path d="M14.6813 36.0821L11.7845 33.1852C10.9876 32.3883 10.7063 31.2352 11.0626 30.1665C11.3438 29.3321 11.7188 28.2446 12.1688 26.9977H2.25009C1.44384 26.9977 0.693841 26.5665 0.290716 25.8633C-0.112409 25.1602 -0.103034 24.2977 0.309466 23.604L5.23134 15.3071C6.45009 13.254 8.65322 11.9977 11.0345 11.9977H18.7501C18.9751 11.6227 19.2001 11.2758 19.4251 10.9383C27.1032 -0.386666 38.5407 -0.761665 45.3657 0.494585C46.4532 0.69146 47.297 1.54459 47.5032 2.63209C48.7595 9.46646 48.3751 20.8946 37.0595 28.5727C36.7313 28.7977 36.3751 29.0227 36.0001 29.2477V36.9633C36.0001 39.3446 34.7438 41.5571 32.6907 42.7665L24.3938 47.6883C23.7001 48.1008 22.8376 48.1102 22.1345 47.7071C21.4313 47.304 21.0001 46.5633 21.0001 45.7477V35.6977C19.6782 36.1571 18.5251 36.5321 17.6532 36.8133C16.6032 37.1508 15.4595 36.8602 14.672 36.0821H14.6813ZM36.0001 15.7477C36.9947 15.7477 37.9485 15.3526 38.6517 14.6494C39.355 13.9461 39.7501 12.9923 39.7501 11.9977C39.7501 11.0031 39.355 10.0493 38.6517 9.34606C37.9485 8.6428 36.9947 8.24771 36.0001 8.24771C35.0055 8.24771 34.0517 8.6428 33.3484 9.34606C32.6452 10.0493 32.2501 11.0031 32.2501 11.9977C32.2501 12.9923 32.6452 13.9461 33.3484 14.6494C34.0517 15.3526 35.0055 15.7477 36.0001 15.7477Z" fill="white"/>
</svg>
